nColumns=19
nRows=45
DataType=double
version=3
OpenSimVersion=4.1
endheader
time	ground_force_calcn_l_vx	ground_force_calcn_l_vy	ground_force_calcn_l_vz	ground_force_calcn_l_px	ground_force_calcn_l_py	ground_force_calcn_l_pz	ground_force_calcn_l_mx	ground_force_calcn_l_my	ground_force_calcn_l_mz	ground_force_calcn_r_vx	ground_force_calcn_r_vy	ground_force_calcn_r_vz	ground_force_calcn_r_px	ground_force_calcn_r_py	ground_force_calcn_r_pz	ground_force_calcn_r_mx	ground_force_calcn_r_my	ground_force_calcn_r_mz
1.0375	1.29629	361.923	-40.1727	-0.319052	-3.48921e-17	0.217661	-0.0557372	-15.5618	1.72733	-13.7279	345.098	34.966	-0.277577	-3.05082e-17	-0.193531	-0.377149	9.48095	0.960628
1.04748	1.34097	362.545	-40.0228	-0.31903	-3.48918e-17	0.217947	-0.0577333	-15.6088	1.72312	-12.7587	346.577	35.8255	-0.277676	-3.05045e-17	-0.193875	-0.359891	9.77608	1.01055
1.05745	1.31252	363.529	-39.6585	-0.318903	-3.48853e-17	0.218182	-0.0563553	-15.6087	1.7028	-11.7127	348.336	36.5198	-0.277874	-3.05133e-17	-0.194069	-0.339031	10.0828	1.05709
1.06743	1.19786	364.766	-39.0938	-0.31869	-3.48745e-17	0.218336	-0.0510627	-15.5493	1.6665	-10.6221	350.378	37.0193	-0.278136	-3.05314e-17	-0.194099	-0.315052	10.3922	1.09799
1.0774	0.977061	366.078	-38.3259	-0.318412	-3.4861e-17	0.218399	-0.041174	-15.4268	1.61508	-9.54691	352.7	37.3114	-0.278399	-3.05529e-17	-0.193969	-0.289089	10.6801	1.12982
1.08738	0.63029	367.297	-37.3757	-0.318068	-3.48435e-17	0.21838	-0.026171	-15.251	1.55192	-8.56101	355.27	37.3987	-0.27863	-3.05744e-17	-0.193705	-0.263473	10.9338	1.15098
1.09736	0.174971	368.264	-36.2671	-0.317682	-3.48238e-17	0.218291	-0.00713752	-15.0225	1.47943	-7.72055	358.022	37.2886	-0.278838	-3.05975e-17	-0.193327	-0.24017	11.1373	1.15997
1.10733	-0.355219	368.84	-35.0202	-0.317294	-3.48054e-17	0.218152	0.0141997	-14.7442	1.39992	-7.0458	360.868	36.9825	-0.279013	-3.06208e-17	-0.19285	-0.22039	11.2878	1.1568
1.11731	-0.92217	368.939	-33.6452	-0.316926	-3.479e-17	0.217968	0.0360503	-14.4229	1.31529	-6.54831	363.702	36.4761	-0.279157	-3.06442e-17	-0.192298	-0.204935	11.3824	1.14155
1.12728	-1.4908	368.555	-32.1559	-0.316564	-3.47759e-17	0.217744	0.0569162	-14.0708	1.22765	-6.21588	366.4	35.7859	-0.27928	-3.06686e-17	-0.191683	-0.19358	11.4107	1.11447
1.13726	-2.01189	367.746	-30.5587	-0.316176	-3.47587e-17	0.2175	0.0749793	-13.7051	1.13886	-6.02236	368.846	34.936	-0.279405	-3.06959e-17	-0.191018	-0.185678	11.3721	1.07713
1.14724	-2.45706	366.624	-28.8714	-0.315754	-3.47376e-17	0.217242	0.0894091	-13.3409	1.05059	-5.95129	370.94	33.9475	-0.279508	-3.0723e-17	-0.190307	-0.180789	11.2685	1.03126
1.15721	-2.80612	365.326	-27.1425	-0.315311	-3.47133e-17	0.216961	0.0997595	-12.9876	0.964934	-5.98497	372.602	32.8259	-0.279571	-3.0747e-17	-0.189556	-0.178445	11.1093	0.978721
1.16719	-3.02477	364.021	-25.4284	-0.314816	-3.46822e-17	0.216646	0.10507	-12.6448	0.883296	-6.09286	373.767	31.571	-0.279607	-3.07692e-17	-0.188753	-0.177635	10.897	0.92044
1.17716	-3.1155	362.87	-23.7642	-0.314242	-3.46411e-17	0.216303	0.105724	-12.3139	0.806436	-6.26775	374.383	30.1841	-0.279643	-3.07921e-17	-0.187895	-0.178182	10.6431	0.858087
1.18714	-3.08836	361.976	-22.1778	-0.313603	-3.45914e-17	0.215942	0.102404	-12.0024	0.735372	-6.50236	374.422	28.655	-0.279677	-3.08152e-17	-0.186974	-0.179979	10.3636	0.793143
1.19712	-2.96022	361.392	-20.7	-0.312931	-3.45363e-17	0.215549	0.0958753	-11.7047	0.67043	-6.76003	373.907	26.9753	-0.279677	-3.08348e-17	-0.185964	-0.181923	10.0624	0.725947
1.20709	-2.73857	361.127	-19.3527	-0.312223	-3.44755e-17	0.21514	0.0866125	-11.4213	0.612064	-7.021	372.894	25.1424	-0.279649	-3.08514e-17	-0.184868	-0.183708	9.75697	0.657866
1.21707	-2.45232	361.162	-18.1262	-0.311469	-3.44078e-17	0.214738	0.0757718	-11.1592	0.560065	-7.25877	371.485	23.1744	-0.279592	-3.08644e-17	-0.183687	-0.185045	9.47014	0.590777
1.22704	-2.13976	361.446	-17.0155	-0.310677	-3.43343e-17	0.214326	0.0645895	-10.9104	0.513619	-7.43395	369.828	21.0976	-0.279514	-3.08748e-17	-0.182413	-0.184876	9.19732	0.52468
1.23702	-1.85193	361.886	-15.9988	-0.309863	-3.4257e-17	0.213889	0.0545885	-10.6671	0.471589	-7.5269	368.104	18.9438	-0.279435	-3.08847e-17	-0.181059	-0.182896	8.94456	0.460316
1.247	-1.6433	362.401	-15.0323	-0.309051	-3.4179e-17	0.213429	0.047279	-10.4265	0.432488	-7.55631	366.489	16.7778	-0.279338	-3.08919e-17	-0.179658	-0.179757	8.7184	0.399126
1.25697	-1.5676	362.93	-14.0785	-0.308255	-3.41023e-17	0.212948	0.0440072	-10.1885	0.395225	-7.53217	365.105	14.6607	-0.279209	-3.08944e-17	-0.178241	-0.175651	8.51429	0.34189
1.26695	-1.67669	363.435	-13.1066	-0.307464	-3.40255e-17	0.212452	0.0459736	-9.96508	0.359372	-7.4668	364	12.6354	-0.279029	-3.08902e-17	-0.176836	-0.17086	8.32928	0.289132
1.27692	-2.0112	363.887	-12.1007	-0.306676	-3.3949e-17	0.211931	0.0538993	-9.75203	0.324294	-7.39763	363.186	10.7131	-0.27878	-3.08771e-17	-0.175477	-0.166397	8.16925	0.240972
1.2869	-2.57089	364.282	-11.0547	-0.305873	-3.38704e-17	0.211378	0.0673345	-9.54096	0.289536	-7.35309	362.667	8.8851	-0.278478	-3.08571e-17	-0.17418	-0.162801	8.02963	0.19672
1.29688	-3.31831	364.636	-9.96021	-0.305031	-3.37876e-17	0.210812	0.0849468	-9.33446	0.254975	-7.35134	362.431	7.15088	-0.27813	-3.08309e-17	-0.172952	-0.160255	7.90076	0.155885
1.30685	-4.19997	364.961	-8.82189	-0.304146	-3.36998e-17	0.21024	0.105174	-9.13917	0.220914	-7.40002	362.482	5.50787	-0.277742	-3.07993e-17	-0.171796	-0.158907	7.78387	0.118275
1.31683	-5.15173	365.266	-7.64748	-0.303215	-3.36066e-17	0.209673	0.126338	-8.95758	0.187543	-7.47869	362.856	3.95031	-0.277325	-3.07637e-17	-0.170712	-0.158313	7.68116	0.0836224
1.3268	-6.12072	365.548	-6.45971	-0.302274	-3.3512e-17	0.209105	0.147035	-8.78139	0.155179	-7.56151	363.585	2.47501	-0.276907	-3.0727e-17	-0.169707	-0.157947	7.59467	0.0516986
1.33678	-7.06158	365.776	-5.24814	-0.30136	-3.34202e-17	0.208546	0.166253	-8.61156	0.123558	-7.6298	364.672	1.08701	-0.2765	-3.06908e-17	-0.168786	-0.157678	7.53633	0.0224643
1.34675	-7.92252	365.917	-3.9716	-0.300475	-3.33316e-17	0.208029	0.183016	-8.45293	0.0917467	-7.6498	366.091	-0.18699	-0.276074	-3.06515e-17	-0.167944	-0.156855	7.50649	-0.00383414
1.35673	-8.66712	365.958	-2.58301	-0.299613	-3.3246e-17	0.207581	0.1967	-8.30541	0.0586215	-7.59448	367.8	-1.32283	-0.275619	-3.0608e-17	-0.167172	-0.154768	7.49538	-0.026958
1.36671	-9.31034	365.903	-1.03801	-0.298783	-3.31646e-17	0.207216	0.207738	-8.16424	0.0231606	-7.46457	369.753	-2.32677	-0.275159	-3.0563e-17	-0.166462	-0.151437	7.50134	-0.0472041
1.37668	-9.87829	365.76	0.692918	-0.29797	-3.30859e-17	0.206921	0.216478	-8.01546	-0.015185	-7.27572	371.922	-3.21774	-0.274703	-3.05176e-17	-0.165804	-0.147158	7.52244	-0.0650816
1.38666	-10.3882	365.547	2.61304	-0.297174	-3.30099e-17	0.206692	0.223145	-7.8522	-0.0561297	-7.07312	374.282	-4.01885	-0.274224	-3.0469e-17	-0.1652	-0.142682	7.55019	-0.0810702
1.39663	-10.8602	365.302	4.69475	-0.296378	-3.29346e-17	0.206534	0.228319	-7.67993	-0.0987	-6.9215	376.778	-4.7786	-0.273713	-3.04165e-17	-0.164644	-0.139205	7.57773	-0.0961069
1.40661	-11.2916	365.063	6.8723	-0.295599	-3.2861e-17	0.206432	0.231763	-7.49299	-0.141055	-6.89658	379.298	-5.54127	-0.273192	-3.03629e-17	-0.164129	-0.138013	7.59042	-0.110891
1.41659	-11.6612	364.859	9.06358	-0.294853	-3.27904e-17	0.20637	0.233055	-7.29187	-0.181139	-7.0446	381.676	-6.3587	-0.272683	-3.03106e-17	-0.163635	-0.139753	7.57182	-0.126146
1.42656	-11.9403	364.7	11.1606	-0.29416	-3.27244e-17	0.20634	0.231981	-7.08558	-0.216834	-7.41462	383.715	-7.29196	-0.272222	-3.0264e-17	-0.163157	-0.145275	7.51816	-0.142872
1.43654	-12.0986	364.592	13.0734	-0.293514	-3.26619e-17	0.206359	0.22872	-6.89249	-0.247148	-8.04057	385.241	-8.3863	-0.271816	-3.02242e-17	-0.162675	-0.155009	7.42682	-0.161674
1.44651	-12.1145	364.536	14.7299	-0.292893	-3.26003e-17	0.206402	0.223021	-6.71089	-0.271169	-8.92142	386.133	-9.66295	-0.27148	-3.01928e-17	-0.162167	-0.168455	7.29101	-0.182457
1.45649	-12.006	364.522	16.0914	-0.292305	-3.25402e-17	0.206427	0.215096	-6.5307	-0.288291	-10.0448	386.347	-11.1233	-0.271224	-3.01707e-17	-0.161629	-0.184923	7.11258	-0.204777
1.46647	-11.8133	364.529	17.1666	-0.291745	-3.24814e-17	0.206404	0.206051	-6.35821	-0.299424	-11.3745	385.885	-12.7497	-0.271033	-3.01564e-17	-0.161055	-0.203634	6.90837	-0.228254
1.47644	-11.5602	364.527	18.0037	-0.29116	-3.24184e-17	0.206315	0.196225	-6.18754	-0.305598	-12.8453	384.821	-14.4923	-0.270904	-3.01489e-17	-0.160449	-0.222814	6.67506	-0.251382
